<svg width="112" height="49" viewBox="0 0 112 49" fill="none" xmlns="http://www.w3.org/2000/svg">
<ellipse cx="78.5" cy="28" rx="20.5" ry="21" fill="#FCA5A5"/>
<circle cx="21" cy="28" r="21" fill="#FCA5A5"/>
<circle cx="29" cy="22" r="19.5" stroke="#DC2626" stroke-width="5"/>
<circle cx="86" cy="22" r="19.5" stroke="#DC2626" stroke-width="5"/>
<path d="M78 23C79.2632 19.3077 82.6316 17 86 17C89.3684 17 93.5789 19.3077 94 23" stroke="#DC2626" stroke-width="7" stroke-linecap="round"/>
<path d="M48.5 22C49.7715 18.9231 54.1094 17 57.5 17C60.8906 17 66.0762 18.9231 66.5 22" stroke="#DC2626" stroke-width="5" stroke-linecap="round"/>
<path d="M21 23C22.2632 19.3077 25.6316 17 29 17C32.3684 17 36.5789 19.3077 37 23" stroke="#DC2626" stroke-width="7" stroke-linecap="round"/>
<rect x="103" y="17" width="9" height="5" rx="2.5" fill="#DC2626"/>
<rect x="3" y="17" width="8" height="5" rx="2.5" fill="#DC2626"/>
</svg>
