<svg width="263" height="49" viewBox="0 0 263 49" fill="none" xmlns="http://www.w3.org/2000/svg">
<path d="M128.761 36V18.5455H134.159V21.7273H134.341C134.659 20.5758 135.178 19.7197 135.898 19.1591C136.617 18.5909 137.455 18.3068 138.409 18.3068C138.667 18.3068 138.932 18.3258 139.205 18.3636C139.477 18.3939 139.731 18.4432 139.966 18.5114V23.3409C139.701 23.25 139.352 23.178 138.92 23.125C138.496 23.072 138.117 23.0455 137.784 23.0455C137.125 23.0455 136.53 23.1932 136 23.4886C135.477 23.7765 135.064 24.1818 134.761 24.7045C134.466 25.2197 134.318 25.8258 134.318 26.5227V36H128.761ZM149.067 26.0455V36H143.51V12.7273H148.885V21.75H149.078C149.472 20.6742 150.116 19.8333 151.01 19.2273C151.912 18.6212 153.014 18.3182 154.317 18.3182C155.544 18.3182 156.612 18.5909 157.521 19.1364C158.431 19.6742 159.135 20.4356 159.635 21.4205C160.143 22.4053 160.393 23.5568 160.385 24.875V36H154.828V25.9659C154.836 24.9962 154.593 24.2386 154.101 23.6932C153.609 23.1477 152.915 22.875 152.021 22.875C151.438 22.875 150.923 23.0038 150.476 23.2614C150.037 23.5114 149.692 23.8712 149.442 24.3409C149.2 24.8106 149.075 25.3788 149.067 26.0455ZM173.293 36.3295C171.467 36.3295 169.891 35.9697 168.566 35.25C167.248 34.5227 166.232 33.4886 165.52 32.1477C164.816 30.7992 164.463 29.197 164.463 27.3409C164.463 25.5379 164.819 23.9621 165.532 22.6136C166.244 21.2576 167.248 20.2045 168.543 19.4545C169.838 18.697 171.365 18.3182 173.123 18.3182C174.365 18.3182 175.501 18.5114 176.532 18.8977C177.562 19.2841 178.452 19.8561 179.202 20.6136C179.952 21.3712 180.535 22.3068 180.952 23.4205C181.369 24.5265 181.577 25.7955 181.577 27.2273V28.6136H166.407V25.3864H176.407C176.399 24.7955 176.259 24.2689 175.986 23.8068C175.713 23.3447 175.338 22.9848 174.861 22.7273C174.391 22.4621 173.85 22.3295 173.236 22.3295C172.615 22.3295 172.058 22.4697 171.566 22.75C171.073 23.0227 170.683 23.3977 170.395 23.875C170.107 24.3447 169.956 24.8788 169.941 25.4773V28.7614C169.941 29.4735 170.081 30.0985 170.361 30.6364C170.641 31.1667 171.039 31.5795 171.554 31.875C172.069 32.1705 172.683 32.3182 173.395 32.3182C173.888 32.3182 174.335 32.25 174.736 32.1136C175.138 31.9773 175.482 31.7765 175.77 31.5114C176.058 31.2462 176.274 30.9205 176.418 30.5341L181.52 30.6818C181.308 31.8258 180.842 32.822 180.123 33.6705C179.41 34.5114 178.475 35.1667 177.316 35.6364C176.157 36.0985 174.816 36.3295 173.293 36.3295ZM185.695 36V18.5455H191.093V21.7273H191.275C191.593 20.5758 192.112 19.7197 192.831 19.1591C193.551 18.5909 194.388 18.3068 195.343 18.3068C195.6 18.3068 195.866 18.3258 196.138 18.3636C196.411 18.3939 196.665 18.4432 196.9 18.5114V23.3409C196.635 23.25 196.286 23.178 195.854 23.125C195.43 23.072 195.051 23.0455 194.718 23.0455C194.059 23.0455 193.464 23.1932 192.934 23.4886C192.411 23.7765 191.998 24.1818 191.695 24.7045C191.4 25.2197 191.252 25.8258 191.252 26.5227V36H185.695ZM204.708 36.2955C203.594 36.2955 202.606 36.1098 201.742 35.7386C200.886 35.3598 200.208 34.7917 199.708 34.0341C199.216 33.2689 198.969 32.3106 198.969 31.1591C198.969 30.1894 199.14 29.3712 199.481 28.7045C199.822 28.0379 200.291 27.4962 200.89 27.0795C201.488 26.6629 202.178 26.3485 202.958 26.1364C203.738 25.9167 204.572 25.7689 205.458 25.6932C206.45 25.6023 207.25 25.5076 207.856 25.4091C208.462 25.303 208.901 25.1553 209.174 24.9659C209.454 24.7689 209.594 24.4924 209.594 24.1364V24.0795C209.594 23.4962 209.394 23.0455 208.992 22.7273C208.591 22.4091 208.049 22.25 207.367 22.25C206.632 22.25 206.041 22.4091 205.594 22.7273C205.147 23.0455 204.863 23.4848 204.742 24.0455L199.617 23.8636C199.769 22.803 200.159 21.8561 200.788 21.0227C201.424 20.1818 202.295 19.5227 203.401 19.0455C204.515 18.5606 205.852 18.3182 207.413 18.3182C208.526 18.3182 209.553 18.4508 210.492 18.7159C211.432 18.9735 212.25 19.3523 212.947 19.8523C213.644 20.3447 214.182 20.9508 214.56 21.6705C214.947 22.3902 215.14 23.2121 215.14 24.1364V36H209.913V33.5682H209.776C209.466 34.1591 209.068 34.6591 208.583 35.0682C208.106 35.4773 207.541 35.7841 206.89 35.9886C206.246 36.1932 205.519 36.2955 204.708 36.2955ZM206.424 32.6591C207.022 32.6591 207.56 32.5379 208.038 32.2955C208.522 32.053 208.909 31.7197 209.197 31.2955C209.485 30.8636 209.629 30.3636 209.629 29.7955V28.1364C209.469 28.2197 209.276 28.2955 209.049 28.3636C208.829 28.4318 208.587 28.4962 208.322 28.5568C208.057 28.6174 207.784 28.6705 207.504 28.7159C207.223 28.7614 206.954 28.803 206.697 28.8409C206.174 28.9242 205.727 29.053 205.356 29.2273C204.992 29.4015 204.712 29.6288 204.515 29.9091C204.325 30.1818 204.231 30.5076 204.231 30.8864C204.231 31.4621 204.435 31.9015 204.844 32.2045C205.261 32.5076 205.788 32.6591 206.424 32.6591ZM231.079 28.4659V18.5455H236.624V36H231.329V32.75H231.147C230.761 33.8182 230.102 34.6667 229.17 35.2955C228.246 35.9167 227.128 36.2273 225.818 36.2273C224.628 36.2273 223.583 35.9545 222.681 35.4091C221.78 34.8636 221.079 34.1023 220.579 33.125C220.079 32.1402 219.825 30.9886 219.818 29.6705V18.5455H225.374V28.5795C225.382 29.5265 225.632 30.2727 226.124 30.8182C226.617 31.3636 227.287 31.6364 228.136 31.6364C228.689 31.6364 229.185 31.5152 229.624 31.2727C230.071 31.0227 230.424 30.6629 230.681 30.1932C230.946 29.7159 231.079 29.1402 231.079 28.4659ZM246.998 12.7273V36H241.441V12.7273H246.998ZM261.667 18.5455V22.6364H250.656V18.5455H261.667ZM252.963 14.3636H258.52V30.5114C258.52 30.8523 258.573 31.1288 258.679 31.3409C258.792 31.5455 258.955 31.6932 259.167 31.7841C259.38 31.8674 259.633 31.9091 259.929 31.9091C260.141 31.9091 260.364 31.8902 260.599 31.8523C260.842 31.8068 261.023 31.7689 261.145 31.7386L261.986 35.75C261.72 35.8258 261.345 35.9205 260.861 36.0341C260.383 36.1477 259.811 36.2197 259.145 36.25C257.842 36.3106 256.724 36.1591 255.792 35.7955C254.868 35.4242 254.16 34.8485 253.667 34.0682C253.183 33.2879 252.948 32.3068 252.963 31.125V14.3636Z" fill="#DC2626"/>
<ellipse cx="78.5" cy="28" rx="20.5" ry="21" fill="#FCA5A5"/>
<circle cx="21" cy="28" r="21" fill="#FCA5A5"/>
<circle cx="29" cy="22" r="19.5" stroke="#DC2626" stroke-width="5"/>
<circle cx="86" cy="22" r="19.5" stroke="#DC2626" stroke-width="5"/>
<path d="M78 23C79.2632 19.3077 82.6316 17 86 17C89.3684 17 93.5789 19.3077 94 23" stroke="#DC2626" stroke-width="7" stroke-linecap="round"/>
<path d="M48.5 22C49.7715 18.9231 54.1094 17 57.5 17C60.8906 17 66.0762 18.9231 66.5 22" stroke="#DC2626" stroke-width="5" stroke-linecap="round"/>
<path d="M21 23C22.2632 19.3077 25.6316 17 29 17C32.3684 17 36.5789 19.3077 37 23" stroke="#DC2626" stroke-width="7" stroke-linecap="round"/>
<rect x="103" y="17" width="9" height="5" rx="2.5" fill="#DC2626"/>
<rect x="3" y="17" width="8" height="5" rx="2.5" fill="#DC2626"/>
</svg>
